<svg width="26" height="27" viewBox="0 0 26 27" fill="none" xmlns="http://www.w3.org/2000/svg">
<path fill-rule="evenodd" clip-rule="evenodd" d="M23.3846 3.63463H15.1539V1.69519L1.625 3.78332V22.0865L15.1539 24.4168V21.5421H23.3846C23.6338 21.5548 23.878 21.4682 24.0636 21.3013C24.2492 21.1344 24.3611 20.9008 24.375 20.6516V4.52432C24.3609 4.27525 24.2489 4.04188 24.0633 3.87518C23.8777 3.70848 23.6337 3.62199 23.3846 3.63463ZM23.5146 20.7995H15.1263L15.1125 19.2647H17.1332V17.4772H15.0971L15.0873 16.4209H17.1332V14.6334H15.0719L15.0621 13.5772H17.1332V11.7897H15.0556V10.7334H17.1332V8.94594H15.0556V7.88969H17.1332V6.10219H15.0556V4.47719H23.5146V20.7995Z" fill="#20744A"/>
<path d="M18.2705 6.09973H21.7829V7.88723H18.2705V6.09973Z" fill="#20744A"/>
<path d="M18.2705 8.94421H21.7829V10.7317H18.2705V8.94421Z" fill="#20744A"/>
<path d="M18.2705 11.7888H21.7829V13.5763H18.2705V11.7888Z" fill="#20744A"/>
<path d="M18.2705 14.6334H21.7829V16.4209H18.2705V14.6334Z" fill="#20744A"/>
<path d="M18.2705 17.478H21.7829V19.2655H18.2705V17.478Z" fill="#20744A"/>
<path fill-rule="evenodd" clip-rule="evenodd" d="M5.15682 8.72739L6.90045 8.62745L7.99651 11.641L9.29164 8.50314L11.0353 8.4032L8.91789 12.6818L11.0353 16.971L9.1917 16.8467L7.94695 13.5772L6.70139 16.7224L5.00732 16.5729L6.9752 12.7842L5.15682 8.72739Z" fill="white"/>
</svg>
