<svg width="24" height="27" viewBox="0 0 24 27" fill="none" xmlns="http://www.w3.org/2000/svg">
<circle cx="16.5" cy="20.4999" r="6.5" fill="#1A73E8"/>
<path d="M5 19.1114C5 16.6983 6.69732 14.6429 9.00404 14.2626L9.21182 14.2283C11.0589 13.9238 12.9411 13.9238 14.7882 14.2283L14.996 14.2626C17.3027 14.6429 19 16.6983 19 19.1114C19 20.1544 18.1815 20.9999 17.1719 20.9999H6.82813C5.81848 20.9999 5 20.1544 5 19.1114Z" stroke="white" stroke-width="1.5"/>
<path d="M16.0834 6.93744C16.0834 9.11206 14.2552 10.8749 12 10.8749C9.74486 10.8749 7.91669 9.11206 7.91669 6.93744C7.91669 4.76282 9.74486 2.99994 12 2.99994C14.2552 2.99994 16.0834 4.76282 16.0834 6.93744Z" stroke="white" stroke-width="1.5"/>
</svg>
