<svg width="25" height="25" viewBox="0 0 25 25" fill="none" xmlns="http://www.w3.org/2000/svg">
<g id="Iconly/Light/Setting">
<g id="Setting">
<path id="Path_33946" fill-rule="evenodd" clip-rule="evenodd" d="M21.6941 7.87368L21.0717 6.79358C20.5451 5.87966 19.3782 5.56438 18.463 6.08878V6.08878C18.0274 6.34541 17.5075 6.41821 17.0182 6.29115C16.5288 6.16408 16.11 5.84758 15.8543 5.41143C15.6898 5.13421 15.6013 4.81846 15.598 4.4961V4.4961C15.6128 3.97928 15.4179 3.47846 15.0575 3.10773C14.6971 2.737 14.202 2.52792 13.685 2.52814H12.431C11.9244 2.52813 11.4388 2.72998 11.0815 3.08901C10.7241 3.44804 10.5246 3.93465 10.5271 4.44118V4.44118C10.512 5.48699 9.65993 6.32687 8.61402 6.32676C8.29166 6.32342 7.97591 6.23501 7.69869 6.07047V6.07047C6.78351 5.54607 5.61656 5.86136 5.08999 6.77528L4.4218 7.87368C3.89586 8.78645 4.20685 9.95267 5.11745 10.4824V10.4824C5.70935 10.8241 6.07398 11.4557 6.07398 12.1391C6.07398 12.8226 5.70935 13.4541 5.11745 13.7959V13.7959C4.20801 14.322 3.89668 15.4854 4.4218 16.3954V16.3954L5.05338 17.4847C5.3001 17.9298 5.71405 18.2584 6.20364 18.3975C6.69323 18.5366 7.21809 18.475 7.66207 18.2261V18.2261C8.09853 17.9714 8.61864 17.9016 9.10679 18.0323C9.59494 18.1629 10.0107 18.4831 10.2616 18.9217C10.4261 19.199 10.5146 19.5147 10.5179 19.8371V19.8371C10.5179 20.8936 11.3744 21.7501 12.431 21.7501H13.685C14.7379 21.7501 15.593 20.8992 15.598 19.8462V19.8462C15.5955 19.3381 15.7963 18.8501 16.1556 18.4908C16.5149 18.1315 17.0029 17.9307 17.511 17.9332C17.8326 17.9418 18.1471 18.0298 18.4264 18.1895V18.1895C19.3392 18.7154 20.5054 18.4044 21.0351 17.4938V17.4938L21.6941 16.3954C21.9492 15.9576 22.0192 15.4361 21.8887 14.9464C21.7581 14.4568 21.4377 14.0394 20.9985 13.7867V13.7867C20.5592 13.534 20.2388 13.1166 20.1083 12.627C19.9777 12.1374 20.0477 11.6159 20.3028 11.178C20.4687 10.8884 20.7088 10.6483 20.9985 10.4824V10.4824C21.9036 9.95295 22.2139 8.79355 21.6941 7.88283V7.88283V7.87368Z" stroke="#363853" stroke-width="1.5" stroke-linecap="round" stroke-linejoin="round"/>
<circle id="Ellipse_737" cx="13.0619" cy="12.1391" r="2.63616" stroke="#363853" stroke-width="1.5" stroke-linecap="round" stroke-linejoin="round"/>
</g>
</g>
</svg>
