<svg width="25" height="25" viewBox="0 0 25 25" fill="none" xmlns="http://www.w3.org/2000/svg">
<g id="Iconly/Light/Delete">
<g id="Delete">
<path id="Stroke 1" d="M20.2105 9.7182C20.2105 9.7182 19.6675 16.4532 19.3525 19.2902C19.2025 20.6452 18.3655 21.4392 16.9945 21.4642C14.3855 21.5112 11.7735 21.5142 9.16553 21.4592C7.84653 21.4322 7.02353 20.6282 6.87653 19.2972C6.55953 16.4352 6.01953 9.7182 6.01953 9.7182" stroke="#EB5757" stroke-width="1.5" stroke-linecap="round" stroke-linejoin="round"/>
<path id="Stroke 3" d="M21.5947 6.48969H4.63672" stroke="#EB5757" stroke-width="1.5" stroke-linecap="round" stroke-linejoin="round"/>
<path id="Stroke 5" d="M18.3273 6.48967C17.5423 6.48967 16.8663 5.93467 16.7123 5.16567L16.4693 3.94967C16.3193 3.38867 15.8113 3.00067 15.2323 3.00067H10.9993C10.4203 3.00067 9.9123 3.38867 9.7623 3.94967L9.5193 5.16567C9.3653 5.93467 8.6893 6.48967 7.9043 6.48967" stroke="#EB5757" stroke-width="1.5" stroke-linecap="round" stroke-linejoin="round"/>
</g>
</g>
</svg>
